<svg xmlns="http://www.w3.org/2000/svg" viewBox="-60 -60 120 165"><defs><radialGradient id="jlive2bell" cx="32%" cy="19%" r="83%"><stop stop-color="#ffe2b8" stop-opacity="1"/><stop offset=".4" stop-color="#ebbb96" stop-opacity="0.95"/><stop offset=".78" stop-color="#d89b77" stop-opacity="0.88"/><stop offset="1" stop-color="#ac725c" stop-opacity="1"/></radialGradient><linearGradient id="jlive2ribbon" x2=".7" y2="1"><stop stop-color="#a5c9a1" stop-opacity=".85"/><stop offset=".6" stop-color="#548d77" stop-opacity="1"/><stop offset="1" stop-color="#376956" stop-opacity="1"/></linearGradient></defs><g transform="scale(1 1)"><path d="M-32 1C-32 25 -32 39 -38.456204818095706 52S-38.456204818095706 64 -34.582481927238284 69" fill="none" stroke="url(#jlive2ribbon)" stroke-width="7" stroke-linecap="round" opacity="0.9"/></g><g transform="scale(1 1)"><path d="M0 1C5.021492636296659 25 -3.5150448454076613 39 0 52S5.021492636296659 72 0 77" fill="none" stroke="url(#jlive2ribbon)" stroke-width="7" stroke-linecap="round" opacity="0.9"/></g><g transform="scale(1 1)"><path d="M32 1C38.99701522129054 25 27.102089345096626 39 38.456204818095706 52S45.453220039386245 80 34.582481927238284 85" fill="none" stroke="url(#jlive2ribbon)" stroke-width="7" stroke-linecap="round" opacity="0.9"/></g><g transform="scale(1 1)"><path d="M-51 4C-50-33-24-55 0-53C30-54 53-28 51 4Q43 16 34 5Q25 18 17 6Q8 19 0 7Q-10 18-18 6Q-27 17-35 5Q-44 14-51 4Z" fill="url(#jlive2bell)" stroke="#a66e56" stroke-width="1.7" stroke-opacity="0.9"/><path d="M-43 4Q-35 13-27 5Q-18 15-9 6Q0 17 9 6Q18 15 27 5Q36 13 44 4" fill="none" stroke="#ffdfae" stroke-width="4" stroke-linecap="round" opacity="1"/><path d="M-31-28Q-17-44 1-43" fill="none" stroke="#fff1d0" stroke-width="3.5" stroke-linecap="round" opacity="0.75"/><ellipse cx="-19" cy="-24" rx="4" ry="3.4" fill="#c98263" opacity=".65"/><ellipse cx="0" cy="-31" rx="4" ry="3.4" fill="#c98263" opacity=".65"/><ellipse cx="19" cy="-24" rx="4" ry="3.4" fill="#c98263" opacity=".65"/><circle cx="-10" cy="-8" r="2.2" fill="#36584b"/><circle cx="10" cy="-8" r="2.2" fill="#36584b"/></g></svg>
