<svg xmlns="http://www.w3.org/2000/svg" viewBox="-100 -75 200 150"><defs><linearGradient id="a0leaf" x2="1" y2=".6"><stop stop-color="#87ad78"/><stop offset=".4" stop-color="#4c865f"/><stop offset="1" stop-color="#204e40"/></linearGradient><radialGradient id="a0body" cx="35%" cy="22%" r="80%"><stop stop-color="#e4dbc0"/><stop offset=".35" stop-color="#92b6a4"/><stop offset=".74" stop-color="#438b81"/><stop offset="1" stop-color="#123e41"/></radialGradient><linearGradient id="a0fin" x2=".25" y2="1"><stop stop-color="#90b9ae" stop-opacity=".9"/><stop offset="1" stop-color="#255f62" stop-opacity="0.5"/></linearGradient><radialGradient id="a0warm" cx="35%" cy="22%" r="80%"><stop stop-color="#ead5b3"/><stop offset=".45" stop-color="#bd8c65"/><stop offset="1" stop-color="#654438"/></radialGradient><linearGradient id="a0stone" x2=".8" y2="1"><stop stop-color="#b1b6a0"/><stop offset=".55" stop-color="#778d7c"/><stop offset="1" stop-color="#3e6259"/></linearGradient><linearGradient id="a0water" x2=".15" y2="1"><stop stop-color="#47857c"/><stop offset=".4" stop-color="#1c5658"/><stop offset="1" stop-color="#0e333b"/></linearGradient><radialGradient id="a0sand" cy="0" r="1"><stop stop-color="#b7b8a0"/><stop offset="1" stop-color="#43675e"/></radialGradient><filter id="a0shadow" x="-60%" y="-60%" width="220%" height="220%"><feDropShadow dx="1" dy="3" stdDeviation="2" flood-color="#062e32" flood-opacity="0.35"/></filter><pattern id="a0scales" width="8" height="6" patternUnits="userSpaceOnUse"><path d="M0 0Q4 6 8 0M-4 3Q0 9 4 3M4 3Q8 9 12 3" fill="none" stroke="#ddedc5" stroke-opacity=".17" stroke-width=".65"/></pattern></defs><g filter="url(#a0shadow)"><path d="M-48 0L-88-29Q-77-1-88 29Z" fill="url(#a0fin)" stroke="#214e4e" stroke-width="0.8" stroke-linejoin="round" stroke-linecap="round" /><path d="M-47 0Q-65.5 -18.2 -84 -26" fill="none" stroke="#d0dcc1" stroke-width="0.6" stroke-linejoin="round" stroke-linecap="round" opacity="0.35"/><path d="M-47 0Q-65.5 -12.999999999999998 -84 -18.57142857142857" fill="none" stroke="#d0dcc1" stroke-width="0.6" stroke-linejoin="round" stroke-linecap="round" opacity="0.35"/><path d="M-47 0Q-65.5 -7.799999999999999 -84 -11.142857142857142" fill="none" stroke="#d0dcc1" stroke-width="0.6" stroke-linejoin="round" stroke-linecap="round" opacity="0.35"/><path d="M-47 0Q-65.5 -2.6000000000000005 -84 -3.7142857142857153" fill="none" stroke="#d0dcc1" stroke-width="0.6" stroke-linejoin="round" stroke-linecap="round" opacity="0.35"/><path d="M-47 0Q-65.5 2.6000000000000005 -84 3.7142857142857153" fill="none" stroke="#d0dcc1" stroke-width="0.6" stroke-linejoin="round" stroke-linecap="round" opacity="0.35"/><path d="M-47 0Q-65.5 7.800000000000002 -84 11.142857142857146" fill="none" stroke="#d0dcc1" stroke-width="0.6" stroke-linejoin="round" stroke-linecap="round" opacity="0.35"/><path d="M-47 0Q-65.5 12.999999999999998 -84 18.57142857142857" fill="none" stroke="#d0dcc1" stroke-width="0.6" stroke-linejoin="round" stroke-linecap="round" opacity="0.35"/><path d="M-47 0Q-65.5 18.2 -84 26" fill="none" stroke="#d0dcc1" stroke-width="0.6" stroke-linejoin="round" stroke-linecap="round" opacity="0.35"/><path d="M-22-18Q-12-52 19-37L34-17" fill="url(#a0fin)" stroke="#214e4e" stroke-width="0.8" stroke-linejoin="round" stroke-linecap="round" /><path d="M2 -22Q8.5 -33.9 15 -39" fill="none" stroke="#d0dcc1" stroke-width="0.6" stroke-linejoin="round" stroke-linecap="round" opacity="0.35"/><path d="M2 -22Q8.5 -32 15 -36.285714285714285" fill="none" stroke="#d0dcc1" stroke-width="0.6" stroke-linejoin="round" stroke-linecap="round" opacity="0.35"/><path d="M2 -22Q8.5 -30.099999999999998 15 -33.57142857142857" fill="none" stroke="#d0dcc1" stroke-width="0.6" stroke-linejoin="round" stroke-linecap="round" opacity="0.35"/><path d="M2 -22Q8.5 -28.2 15 -30.857142857142858" fill="none" stroke="#d0dcc1" stroke-width="0.6" stroke-linejoin="round" stroke-linecap="round" opacity="0.35"/><path d="M2 -22Q8.5 -26.299999999999997 15 -28.142857142857142" fill="none" stroke="#d0dcc1" stroke-width="0.6" stroke-linejoin="round" stroke-linecap="round" opacity="0.35"/><path d="M2 -22Q8.5 -24.400000000000002 15 -25.42857142857143" fill="none" stroke="#d0dcc1" stroke-width="0.6" stroke-linejoin="round" stroke-linecap="round" opacity="0.35"/><path d="M2 -22Q8.5 -22.5 15 -22.714285714285715" fill="none" stroke="#d0dcc1" stroke-width="0.6" stroke-linejoin="round" stroke-linecap="round" opacity="0.35"/><path d="M2 -22Q8.5 -20.6 15 -20" fill="none" stroke="#d0dcc1" stroke-width="0.6" stroke-linejoin="round" stroke-linecap="round" opacity="0.35"/><path d="M-2 18Q7 47 29 29L36 14" fill="url(#a0fin)" stroke="#214e4e" stroke-width="0.8" stroke-linejoin="round" stroke-linecap="round" /><path d="M-54 0Q-20-32 20-24Q56-21 69-1Q49 26 9 24Q-28 22-54 0Z" fill="url(#a0body)" stroke="#214e4e" stroke-width="0.8" stroke-linejoin="round" stroke-linecap="round" /><path d="M-54 0Q-20-32 20-24Q56-21 69-1Q49 26 9 24Q-28 22-54 0Z" fill="url(#a0scales)" stroke="none" stroke-width="0.8" stroke-linejoin="round" stroke-linecap="round" /><path d="M37-16Q25 0 40 15" fill="none" stroke="#234f4a" stroke-width="1.2" stroke-linejoin="round" stroke-linecap="round" opacity="0.6"/><path d="M8 1Q-16 15-14 26Q10 24 25 7" fill="url(#a0fin)" stroke="#214e4e" stroke-width="0.8" stroke-linejoin="round" stroke-linecap="round" /><path d="M23 7Q6.5 13.3 -10 16" fill="none" stroke="#d0dcc1" stroke-width="0.6" stroke-linejoin="round" stroke-linecap="round" opacity="0.35"/><path d="M23 7Q6.5 14.7 -10 18" fill="none" stroke="#d0dcc1" stroke-width="0.6" stroke-linejoin="round" stroke-linecap="round" opacity="0.35"/><path d="M23 7Q6.5 16.1 -10 20" fill="none" stroke="#d0dcc1" stroke-width="0.6" stroke-linejoin="round" stroke-linecap="round" opacity="0.35"/><path d="M23 7Q6.5 17.5 -10 22" fill="none" stroke="#d0dcc1" stroke-width="0.6" stroke-linejoin="round" stroke-linecap="round" opacity="0.35"/><path d="M23 7Q6.5 18.9 -10 24" fill="none" stroke="#d0dcc1" stroke-width="0.6" stroke-linejoin="round" stroke-linecap="round" opacity="0.35"/><ellipse cx="51" cy="-5" rx="3.4" ry="3.4" fill="#c8caa4" /><ellipse cx="51" cy="-5" rx="2.4" ry="2.4" fill="#153a37" /><ellipse cx="50.35" cy="-5.8" rx="0.8" ry="0.8" fill="#faf9e4" /><path d="M61 7L68 2" fill="none" stroke="#153a37" stroke-width="1" stroke-linejoin="round" stroke-linecap="round" opacity="0.7"/><path d="M-27-13Q6-28 34-16" fill="none" stroke="#c1d6be" stroke-width="1.3" stroke-linejoin="round" stroke-linecap="round" opacity="0.7"/></g></svg>
