<svg xmlns="http://www.w3.org/2000/svg" viewBox="0 0 32 32">
<ellipse cx="16" cy="29" rx="14" ry="2.2" fill="#6f7a66"/>
<path d="M3 23 Q4 28 10 28 L24 28 Q28 27 29 16 L27 15.5 Q25 25 20 26 L10 26 Q6 25 5 21 Z" fill="#3e4a3c"/>
<path d="M4 22 Q5 26 10 26 L22 26 Q26 25 28 15 L4.5 19 Z" fill="#7a7d64"/>
<path d="M4.5 19 L28 15 L28.3 16.3 L5 20.3 Z" fill="#3e4a3c"/>
<path d="M6 22.5 L24 19.5 M7.5 25 L22 22.5" stroke="#3e4a3c" stroke-width=".7"/>
<path d="M5 20.5 l1.2 4.5 M7.5 20 l1.2 5 M10 19.5 l1 5.5" stroke="#3e4a3c" stroke-width=".8"/>
<ellipse cx="14" cy="23" rx="2.6" ry="1.9" fill="#0e1816"/><ellipse cx="21" cy="21.5" rx="2.1" ry="1.7" fill="#0e1816"/>
<path d="M5 25.5 q3 1.5 6 .5 M17 26 q3 1 5 -.5" stroke="#4f7a4a" stroke-width="1.3" fill="none" stroke-linecap="round"/>
<path d="M15 17 L13 3.5" stroke="#3e4a3c" stroke-width="1.6"/><path d="M8.5 8.5 L17 6.5" stroke="#3e4a3c" stroke-width="1"/>
<path d="M9 9 L14.5 8 L14 14 Z" fill="#c9c7a8"/>
<path d="M13.2 4 L29 13" stroke="#6d7872" stroke-width=".5" stroke-dasharray="1 .7"/>
<path d="M27.5 15 L31 12.5" stroke="#3e4a3c" stroke-width="1.2" stroke-linecap="round"/>
<path d="M29.5 19 v6 M27.8 22 h3.4 M27.3 25 q2.2 2.2 4.4 0" stroke="#6d7872" stroke-width="1" fill="none" stroke-linecap="round"/>
<circle cx="5" cy="6" r=".8" fill="#386a63" opacity=".7"/><circle cx="23" cy="4.5" r="1.1" fill="#386a63" opacity=".6"/>
</svg>
