<svg xmlns="http://www.w3.org/2000/svg" viewBox="-100 -75 200 150"><defs><linearGradient id="a11leaf" x2="1" y2=".6"><stop stop-color="#87ad78"/><stop offset=".4" stop-color="#4c865f"/><stop offset="1" stop-color="#204e40"/></linearGradient><radialGradient id="a11body" cx="35%" cy="22%" r="80%"><stop stop-color="#e4dbc0"/><stop offset=".35" stop-color="#92b6a4"/><stop offset=".74" stop-color="#438b81"/><stop offset="1" stop-color="#123e41"/></radialGradient><linearGradient id="a11fin" x2=".25" y2="1"><stop stop-color="#90b9ae" stop-opacity=".9"/><stop offset="1" stop-color="#255f62" stop-opacity="0.5"/></linearGradient><radialGradient id="a11warm" cx="35%" cy="22%" r="80%"><stop stop-color="#ead5b3"/><stop offset=".45" stop-color="#bd8c65"/><stop offset="1" stop-color="#654438"/></radialGradient><linearGradient id="a11stone" x2=".8" y2="1"><stop stop-color="#b1b6a0"/><stop offset=".55" stop-color="#778d7c"/><stop offset="1" stop-color="#3e6259"/></linearGradient><linearGradient id="a11water" x2=".15" y2="1"><stop stop-color="#47857c"/><stop offset=".4" stop-color="#1c5658"/><stop offset="1" stop-color="#0e333b"/></linearGradient><radialGradient id="a11sand" cy="0" r="1"><stop stop-color="#b7b8a0"/><stop offset="1" stop-color="#43675e"/></radialGradient><filter id="a11shadow" x="-60%" y="-60%" width="220%" height="220%"><feDropShadow dx="1" dy="3" stdDeviation="2" flood-color="#062e32" flood-opacity="0.35"/></filter><pattern id="a11scales" width="8" height="6" patternUnits="userSpaceOnUse"><path d="M0 0Q4 6 8 0M-4 3Q0 9 4 3M4 3Q8 9 12 3" fill="none" stroke="#ddedc5" stroke-opacity=".17" stroke-width=".65"/></pattern></defs><g filter="url(#a11shadow)"><ellipse cx="0" cy="49" rx="79" ry="4" fill="#103d38" opacity=".14"/><path d="M-67 43L-67-29L-60-29L-60-40L-48-40L-48-27L-35-27L-35-43L-24-43L-24-11L27-11L27-43L38-43L38-31L49-31L49-47L61-47L61-30L68-30L68 43Z" fill="url(#a11stone)" stroke="#214e4e" stroke-width="0.8" stroke-linejoin="round" stroke-linecap="round" /><path d="M68-30L77-25L77 38L68 43" fill="url(#a11fin)" stroke="#214e4e" stroke-width="0.8" stroke-linejoin="round" stroke-linecap="round" /><path d="M-20 44L-20 10Q0-14 20 10L20 44Z" fill="#173e3e" stroke="#b2b9a1" stroke-width="5" stroke-linejoin="round" stroke-linecap="round" /><path d="M-65 -20H-27M28 -20H65" fill="none" stroke="#284e47" stroke-width="1" stroke-linejoin="round" stroke-linecap="round" opacity="0.6"/><path d="M-65 -10H-27M28 -10H65" fill="none" stroke="#284e47" stroke-width="1" stroke-linejoin="round" stroke-linecap="round" opacity="0.6"/><path d="M-65 0H-27M28 0H65" fill="none" stroke="#284e47" stroke-width="1" stroke-linejoin="round" stroke-linecap="round" opacity="0.6"/><path d="M-65 10H-27M28 10H65" fill="none" stroke="#284e47" stroke-width="1" stroke-linejoin="round" stroke-linecap="round" opacity="0.6"/><path d="M-65 20H-27M28 20H65" fill="none" stroke="#284e47" stroke-width="1" stroke-linejoin="round" stroke-linecap="round" opacity="0.6"/><path d="M-65 30H-27M28 30H65" fill="none" stroke="#284e47" stroke-width="1" stroke-linejoin="round" stroke-linecap="round" opacity="0.6"/><path d="M-65 40H-27M28 40H65" fill="none" stroke="#284e47" stroke-width="1" stroke-linejoin="round" stroke-linecap="round" opacity="0.6"/><path d="M-62 -24l0 8" fill="none" stroke="#334f46" stroke-width="1" stroke-linejoin="round" stroke-linecap="round" opacity="0.5"/><path d="M-33 -7l0 8" fill="none" stroke="#334f46" stroke-width="1" stroke-linejoin="round" stroke-linecap="round" opacity="0.5"/><path d="M25 27l0 8" fill="none" stroke="#334f46" stroke-width="1" stroke-linejoin="round" stroke-linecap="round" opacity="0.5"/><path d="M54 -16l0 8" fill="none" stroke="#334f46" stroke-width="1" stroke-linejoin="round" stroke-linecap="round" opacity="0.5"/><path d="M-41 1l0 8" fill="none" stroke="#334f46" stroke-width="1" stroke-linejoin="round" stroke-linecap="round" opacity="0.5"/><path d="M46 -8l0 8" fill="none" stroke="#334f46" stroke-width="1" stroke-linejoin="round" stroke-linecap="round" opacity="0.5"/><path d="M-49 9l0 8" fill="none" stroke="#334f46" stroke-width="1" stroke-linejoin="round" stroke-linecap="round" opacity="0.5"/><path d="M38 0l0 8" fill="none" stroke="#334f46" stroke-width="1" stroke-linejoin="round" stroke-linecap="round" opacity="0.5"/><path d="M-57 17l0 8" fill="none" stroke="#334f46" stroke-width="1" stroke-linejoin="round" stroke-linecap="round" opacity="0.5"/><path d="M-28 34l0 8" fill="none" stroke="#334f46" stroke-width="1" stroke-linejoin="round" stroke-linecap="round" opacity="0.5"/><path d="M30 8l0 8" fill="none" stroke="#334f46" stroke-width="1" stroke-linejoin="round" stroke-linecap="round" opacity="0.5"/><path d="M59 25l0 8" fill="none" stroke="#334f46" stroke-width="1" stroke-linejoin="round" stroke-linecap="round" opacity="0.5"/><path d="M-36 -18l0 8" fill="none" stroke="#334f46" stroke-width="1" stroke-linejoin="round" stroke-linecap="round" opacity="0.5"/><path d="M51 33l0 8" fill="none" stroke="#334f46" stroke-width="1" stroke-linejoin="round" stroke-linecap="round" opacity="0.5"/><path d="M-44 -10l0 8" fill="none" stroke="#334f46" stroke-width="1" stroke-linejoin="round" stroke-linecap="round" opacity="0.5"/><path d="M-66 33Q-51 17-43 40Q-30 35-26 45L-70 45Z" fill="#527a59" stroke="none" stroke-width="0.8" stroke-linejoin="round" stroke-linecap="round" /><path d="M35-9Q43-22 48-12L62-15L62-7Z" fill="#5d7a57" stroke="none" stroke-width="0.8" stroke-linejoin="round" stroke-linecap="round" /></g></svg>
