<svg xmlns="http://www.w3.org/2000/svg" viewBox="-100 -75 200 150"><defs><linearGradient id="a9leaf" x2="1" y2=".6"><stop stop-color="#87ad78"/><stop offset=".4" stop-color="#4c865f"/><stop offset="1" stop-color="#204e40"/></linearGradient><radialGradient id="a9body" cx="35%" cy="22%" r="80%"><stop stop-color="#e4dbc0"/><stop offset=".35" stop-color="#92b6a4"/><stop offset=".74" stop-color="#438b81"/><stop offset="1" stop-color="#123e41"/></radialGradient><linearGradient id="a9fin" x2=".25" y2="1"><stop stop-color="#90b9ae" stop-opacity=".9"/><stop offset="1" stop-color="#255f62" stop-opacity="0.5"/></linearGradient><radialGradient id="a9warm" cx="35%" cy="22%" r="80%"><stop stop-color="#ead5b3"/><stop offset=".45" stop-color="#bd8c65"/><stop offset="1" stop-color="#654438"/></radialGradient><linearGradient id="a9stone" x2=".8" y2="1"><stop stop-color="#b1b6a0"/><stop offset=".55" stop-color="#778d7c"/><stop offset="1" stop-color="#3e6259"/></linearGradient><linearGradient id="a9water" x2=".15" y2="1"><stop stop-color="#47857c"/><stop offset=".4" stop-color="#1c5658"/><stop offset="1" stop-color="#0e333b"/></linearGradient><radialGradient id="a9sand" cy="0" r="1"><stop stop-color="#b7b8a0"/><stop offset="1" stop-color="#43675e"/></radialGradient><filter id="a9shadow" x="-60%" y="-60%" width="220%" height="220%"><feDropShadow dx="1" dy="3" stdDeviation="2" flood-color="#062e32" flood-opacity="0.35"/></filter><pattern id="a9scales" width="8" height="6" patternUnits="userSpaceOnUse"><path d="M0 0Q4 6 8 0M-4 3Q0 9 4 3M4 3Q8 9 12 3" fill="none" stroke="#ddedc5" stroke-opacity=".17" stroke-width=".65"/></pattern></defs><g filter="url(#a9shadow)"><path d="M-15 -2L-35 -5L-43 8" fill="none" stroke="url(#a9warm)" stroke-width="2.8" stroke-linejoin="round" stroke-linecap="round" /><path d="M-15 6L-38 7L-47 21" fill="none" stroke="url(#a9warm)" stroke-width="2.8" stroke-linejoin="round" stroke-linecap="round" /><path d="M-15 14L-41 19L-51 34" fill="none" stroke="url(#a9warm)" stroke-width="2.8" stroke-linejoin="round" stroke-linecap="round" /><path d="M-15 22L-44 31L-55 47" fill="none" stroke="url(#a9warm)" stroke-width="2.8" stroke-linejoin="round" stroke-linecap="round" /><path d="M-19 0Q-50-12 -46-26" fill="none" stroke="url(#a9warm)" stroke-width="6" stroke-linejoin="round" stroke-linecap="round" /><path d="M-45-19Q-73-26 -65-51L-53-36L-48-54Q-29-37 -45-19Z" fill="url(#a9warm)" stroke="#214e4e" stroke-width="0.8" stroke-linejoin="round" stroke-linecap="round" /><path d="M15 -2L35 -5L43 8" fill="none" stroke="url(#a9warm)" stroke-width="2.8" stroke-linejoin="round" stroke-linecap="round" /><path d="M15 6L38 7L47 21" fill="none" stroke="url(#a9warm)" stroke-width="2.8" stroke-linejoin="round" stroke-linecap="round" /><path d="M15 14L41 19L51 34" fill="none" stroke="url(#a9warm)" stroke-width="2.8" stroke-linejoin="round" stroke-linecap="round" /><path d="M15 22L44 31L55 47" fill="none" stroke="url(#a9warm)" stroke-width="2.8" stroke-linejoin="round" stroke-linecap="round" /><path d="M19 0Q50-12 46-26" fill="none" stroke="url(#a9warm)" stroke-width="6" stroke-linejoin="round" stroke-linecap="round" /><path d="M45-19Q73-26 65-51L53-36L48-54Q29-37 45-19Z" fill="url(#a9warm)" stroke="#214e4e" stroke-width="0.8" stroke-linejoin="round" stroke-linecap="round" /><ellipse cx="0" cy="47" rx="8" ry="6" fill="url(#a9warm)" stroke="#724e3d" stroke-width="1"/><ellipse cx="0" cy="40" rx="9" ry="6" fill="url(#a9warm)" stroke="#724e3d" stroke-width="1"/><ellipse cx="0" cy="33" rx="10" ry="6" fill="url(#a9warm)" stroke="#724e3d" stroke-width="1"/><ellipse cx="0" cy="26" rx="11" ry="6" fill="url(#a9warm)" stroke="#724e3d" stroke-width="1"/><ellipse cx="0" cy="19" rx="12" ry="6" fill="url(#a9warm)" stroke="#724e3d" stroke-width="1"/><ellipse cx="0" cy="12" rx="13" ry="6" fill="url(#a9warm)" stroke="#724e3d" stroke-width="1"/><path d="M-5 43L-18 59Q0 66 18 59L5 43" fill="url(#a9warm)" stroke="#214e4e" stroke-width="0.8" stroke-linejoin="round" stroke-linecap="round" /><ellipse cx="0" cy="2" rx="17" ry="25" fill="url(#a9warm)" /><ellipse cx="-9" cy="-20" rx="3.5" ry="3.5" fill="#c8caa4" /><ellipse cx="-9" cy="-20" rx="2.5" ry="2.5" fill="#153a37" /><ellipse cx="-9.65" cy="-20.8" rx="0.8" ry="0.8" fill="#faf9e4" /><ellipse cx="9" cy="-20" rx="3.5" ry="3.5" fill="#c8caa4" /><ellipse cx="9" cy="-20" rx="2.5" ry="2.5" fill="#153a37" /><ellipse cx="8.35" cy="-20.8" rx="0.8" ry="0.8" fill="#faf9e4" /><path d="M-19-1Q-11-17 7-13" fill="none" stroke="#c1d6be" stroke-width="1" stroke-linejoin="round" stroke-linecap="round" opacity="0.6"/><path d="M-6-20Q-14-52-33-60" fill="none" stroke="#c4c4a2" stroke-width="1" stroke-linejoin="round" stroke-linecap="round" opacity="0.8"/><path d="M6-20Q14-52 33-60" fill="none" stroke="#c4c4a2" stroke-width="1" stroke-linejoin="round" stroke-linecap="round" opacity="0.8"/></g></svg>
